<mxfile host="app.diagrams.net" agent="Mozilla/5.0 (X11; Linux x86_64) AppleWebKit/537.36 (KHTML, like Gecko) Chrome/133.0.0.0 Safari/537.36" version="26.1.0">
  <diagram name="Page-1" id="20MEzR1sKpx1Ir7udCms">
    <mxGraphModel dx="441" dy="788" grid="1" gridSize="10" guides="1" tooltips="1" connect="1" arrows="1" fold="1" page="1" pageScale="1" pageWidth="850" pageHeight="1100" math="0" shadow="0">
      <root>
        <mxCell id="0" />
        <mxCell id="1" parent="0" />
        <mxCell id="-3NiizZmWT5sZ95pFtB3-1" value="&amp;lt;&amp;lt;abstract&amp;gt;&amp;gt;&lt;div&gt;PaymentMethod&lt;/div&gt;" style="swimlane;fontStyle=0;childLayout=stackLayout;horizontal=1;startSize=30;horizontalStack=0;resizeParent=1;resizeParentMax=0;resizeLast=0;collapsible=1;marginBottom=0;whiteSpace=wrap;html=1;" vertex="1" parent="1">
          <mxGeometry y="50" width="140" height="60" as="geometry" />
        </mxCell>
        <mxCell id="-3NiizZmWT5sZ95pFtB3-2" value="+pay(fee: Double): Boolean" style="text;strokeColor=none;fillColor=none;align=left;verticalAlign=middle;spacingLeft=4;spacingRight=4;overflow=hidden;points=[[0,0.5],[1,0.5]];portConstraint=eastwest;rotatable=0;whiteSpace=wrap;html=1;" vertex="1" parent="-3NiizZmWT5sZ95pFtB3-1">
          <mxGeometry y="30" width="140" height="30" as="geometry" />
        </mxCell>
        <mxCell id="-3NiizZmWT5sZ95pFtB3-5" value="" style="endArrow=classic;html=1;rounded=0;entryX=0.479;entryY=1.1;entryDx=0;entryDy=0;entryPerimeter=0;exitX=0.5;exitY=0;exitDx=0;exitDy=0;" edge="1" parent="1" source="-3NiizZmWT5sZ95pFtB3-6" target="-3NiizZmWT5sZ95pFtB3-2">
          <mxGeometry width="50" height="50" relative="1" as="geometry">
            <mxPoint x="67" y="180" as="sourcePoint" />
            <mxPoint x="260" y="380" as="targetPoint" />
          </mxGeometry>
        </mxCell>
        <mxCell id="-3NiizZmWT5sZ95pFtB3-6" value="CashPayment" style="swimlane;fontStyle=0;childLayout=stackLayout;horizontal=1;startSize=30;horizontalStack=0;resizeParent=1;resizeParentMax=0;resizeLast=0;collapsible=1;marginBottom=0;whiteSpace=wrap;html=1;" vertex="1" parent="1">
          <mxGeometry y="190" width="140" height="90" as="geometry" />
        </mxCell>
        <mxCell id="-3NiizZmWT5sZ95pFtB3-7" value="-availableAmount: Double" style="text;strokeColor=none;fillColor=none;align=left;verticalAlign=middle;spacingLeft=4;spacingRight=4;overflow=hidden;points=[[0,0.5],[1,0.5]];portConstraint=eastwest;rotatable=0;whiteSpace=wrap;html=1;" vertex="1" parent="-3NiizZmWT5sZ95pFtB3-6">
          <mxGeometry y="30" width="140" height="30" as="geometry" />
        </mxCell>
        <mxCell id="-3NiizZmWT5sZ95pFtB3-8" value="+pay(fee: Double): Boolean" style="text;strokeColor=none;fillColor=none;align=left;verticalAlign=middle;spacingLeft=4;spacingRight=4;overflow=hidden;points=[[0,0.5],[1,0.5]];portConstraint=eastwest;rotatable=0;whiteSpace=wrap;html=1;" vertex="1" parent="-3NiizZmWT5sZ95pFtB3-6">
          <mxGeometry y="60" width="140" height="30" as="geometry" />
        </mxCell>
        <mxCell id="-3NiizZmWT5sZ95pFtB3-10" value="CardPayment" style="swimlane;fontStyle=0;childLayout=stackLayout;horizontal=1;startSize=30;horizontalStack=0;resizeParent=1;resizeParentMax=0;resizeLast=0;collapsible=1;marginBottom=0;whiteSpace=wrap;html=1;" vertex="1" parent="1">
          <mxGeometry x="210" y="170" width="140" height="90" as="geometry" />
        </mxCell>
        <mxCell id="-3NiizZmWT5sZ95pFtB3-11" value="-bankAccount: Amount" style="text;strokeColor=none;fillColor=none;align=left;verticalAlign=middle;spacingLeft=4;spacingRight=4;overflow=hidden;points=[[0,0.5],[1,0.5]];portConstraint=eastwest;rotatable=0;whiteSpace=wrap;html=1;" vertex="1" parent="-3NiizZmWT5sZ95pFtB3-10">
          <mxGeometry y="30" width="140" height="30" as="geometry" />
        </mxCell>
        <mxCell id="-3NiizZmWT5sZ95pFtB3-12" value="+pay(fee: Double): Boolean" style="text;strokeColor=none;fillColor=none;align=left;verticalAlign=middle;spacingLeft=4;spacingRight=4;overflow=hidden;points=[[0,0.5],[1,0.5]];portConstraint=eastwest;rotatable=0;whiteSpace=wrap;html=1;" vertex="1" parent="-3NiizZmWT5sZ95pFtB3-10">
          <mxGeometry y="60" width="140" height="30" as="geometry" />
        </mxCell>
        <mxCell id="-3NiizZmWT5sZ95pFtB3-14" value="" style="endArrow=classic;html=1;rounded=0;entryX=1.007;entryY=-0.133;entryDx=0;entryDy=0;entryPerimeter=0;exitX=0.429;exitY=0;exitDx=0;exitDy=0;exitPerimeter=0;" edge="1" parent="1" source="-3NiizZmWT5sZ95pFtB3-10" target="-3NiizZmWT5sZ95pFtB3-2">
          <mxGeometry width="50" height="50" relative="1" as="geometry">
            <mxPoint x="210" y="430" as="sourcePoint" />
            <mxPoint x="260" y="380" as="targetPoint" />
          </mxGeometry>
        </mxCell>
        <mxCell id="-3NiizZmWT5sZ95pFtB3-15" value="&amp;lt;&amp;lt;interface&amp;gt;&amp;gt;&lt;div&gt;Amount&lt;/div&gt;" style="swimlane;fontStyle=0;childLayout=stackLayout;horizontal=1;startSize=30;horizontalStack=0;resizeParent=1;resizeParentMax=0;resizeLast=0;collapsible=1;marginBottom=0;whiteSpace=wrap;html=1;" vertex="1" parent="1">
          <mxGeometry x="20" y="340" width="140" height="60" as="geometry" />
        </mxCell>
        <mxCell id="-3NiizZmWT5sZ95pFtB3-16" value="+getAmount(): Double" style="text;strokeColor=none;fillColor=none;align=left;verticalAlign=middle;spacingLeft=4;spacingRight=4;overflow=hidden;points=[[0,0.5],[1,0.5]];portConstraint=eastwest;rotatable=0;whiteSpace=wrap;html=1;" vertex="1" parent="-3NiizZmWT5sZ95pFtB3-15">
          <mxGeometry y="30" width="140" height="30" as="geometry" />
        </mxCell>
        <mxCell id="-3NiizZmWT5sZ95pFtB3-19" value="&amp;lt;&amp;lt;interface&amp;gt;&amp;gt;&lt;div&gt;AccountUpdate&lt;/div&gt;" style="swimlane;fontStyle=0;childLayout=stackLayout;horizontal=1;startSize=30;horizontalStack=0;resizeParent=1;resizeParentMax=0;resizeLast=0;collapsible=1;marginBottom=0;whiteSpace=wrap;html=1;" vertex="1" parent="1">
          <mxGeometry x="210" y="340" width="140" height="60" as="geometry" />
        </mxCell>
        <mxCell id="-3NiizZmWT5sZ95pFtB3-20" value="+updateAmount(value: Double): Boolean" style="text;strokeColor=none;fillColor=none;align=left;verticalAlign=middle;spacingLeft=4;spacingRight=4;overflow=hidden;points=[[0,0.5],[1,0.5]];portConstraint=eastwest;rotatable=0;whiteSpace=wrap;html=1;" vertex="1" parent="-3NiizZmWT5sZ95pFtB3-19">
          <mxGeometry y="30" width="140" height="30" as="geometry" />
        </mxCell>
        <mxCell id="-3NiizZmWT5sZ95pFtB3-23" value="" style="endArrow=classic;html=1;rounded=0;entryX=0.5;entryY=0;entryDx=0;entryDy=0;exitX=0.486;exitY=1.167;exitDx=0;exitDy=0;exitPerimeter=0;" edge="1" parent="1" source="-3NiizZmWT5sZ95pFtB3-12" target="-3NiizZmWT5sZ95pFtB3-19">
          <mxGeometry relative="1" as="geometry">
            <mxPoint x="180" y="410" as="sourcePoint" />
            <mxPoint x="280" y="410" as="targetPoint" />
          </mxGeometry>
        </mxCell>
        <object label="Label" Compozitie="" id="-3NiizZmWT5sZ95pFtB3-24">
          <mxCell style="edgeLabel;resizable=0;html=1;;align=center;verticalAlign=middle;" connectable="0" vertex="1" parent="-3NiizZmWT5sZ95pFtB3-23">
            <mxGeometry relative="1" as="geometry" />
          </mxCell>
        </object>
        <mxCell id="-3NiizZmWT5sZ95pFtB3-25" value="Compozitie" style="edgeLabel;html=1;align=center;verticalAlign=middle;resizable=0;points=[];" vertex="1" connectable="0" parent="-3NiizZmWT5sZ95pFtB3-23">
          <mxGeometry x="0.0714" y="7" relative="1" as="geometry">
            <mxPoint x="-6" y="-5" as="offset" />
          </mxGeometry>
        </mxCell>
        <mxCell id="-3NiizZmWT5sZ95pFtB3-26" value="" style="endArrow=classic;html=1;rounded=0;entryX=0.55;entryY=-0.05;entryDx=0;entryDy=0;exitX=0.314;exitY=0.967;exitDx=0;exitDy=0;exitPerimeter=0;entryPerimeter=0;" edge="1" parent="1" source="-3NiizZmWT5sZ95pFtB3-12" target="-3NiizZmWT5sZ95pFtB3-15">
          <mxGeometry relative="1" as="geometry">
            <mxPoint x="160" y="290" as="sourcePoint" />
            <mxPoint x="162" y="365" as="targetPoint" />
          </mxGeometry>
        </mxCell>
        <mxCell id="-3NiizZmWT5sZ95pFtB3-27" value="Label" style="edgeLabel;resizable=0;html=1;;align=center;verticalAlign=middle;" connectable="0" vertex="1" parent="-3NiizZmWT5sZ95pFtB3-26">
          <mxGeometry relative="1" as="geometry" />
        </mxCell>
        <mxCell id="-3NiizZmWT5sZ95pFtB3-28" value="Compozitie" style="edgeLabel;html=1;align=center;verticalAlign=middle;resizable=0;points=[];" vertex="1" connectable="0" parent="-3NiizZmWT5sZ95pFtB3-26">
          <mxGeometry x="0.0714" y="7" relative="1" as="geometry">
            <mxPoint x="7" y="-7" as="offset" />
          </mxGeometry>
        </mxCell>
        <mxCell id="-3NiizZmWT5sZ95pFtB3-44" value="&lt;p style=&quot;margin:0px;margin-top:4px;text-align:center;&quot;&gt;&lt;b&gt;BankAccount&lt;/b&gt;&lt;/p&gt;&lt;hr size=&quot;1&quot; style=&quot;border-style:solid;&quot;&gt;&lt;p style=&quot;margin:0px;margin-left:4px;&quot;&gt;-cardNumber: String&lt;/p&gt;&lt;p style=&quot;margin:0px;margin-left:4px;&quot;&gt;-availableAmount: Double&lt;/p&gt;&lt;p style=&quot;margin:0px;margin-left:4px;&quot;&gt;-expirationDate: Date&lt;/p&gt;&lt;p style=&quot;margin:0px;margin-left:4px;&quot;&gt;-cvvCode: Int&lt;/p&gt;&lt;p style=&quot;margin:0px;margin-left:4px;&quot;&gt;-userName: String&lt;/p&gt;&lt;hr size=&quot;1&quot; style=&quot;border-style:solid;&quot;&gt;&lt;p style=&quot;margin:0px;margin-left:4px;&quot;&gt;+ updateAmount(value: Double): Boolean&lt;/p&gt;&lt;p style=&quot;margin:0px;margin-left:4px;&quot;&gt;+getAmount(): Double&lt;/p&gt;" style="verticalAlign=top;align=left;overflow=fill;html=1;whiteSpace=wrap;" vertex="1" parent="1">
          <mxGeometry x="120" y="510" width="160" height="170" as="geometry" />
        </mxCell>
        <mxCell id="-3NiizZmWT5sZ95pFtB3-47" value="" style="endArrow=classic;html=1;rounded=0;exitX=0.563;exitY=-0.018;exitDx=0;exitDy=0;exitPerimeter=0;" edge="1" parent="1" source="-3NiizZmWT5sZ95pFtB3-44">
          <mxGeometry width="50" height="50" relative="1" as="geometry">
            <mxPoint x="330" y="480" as="sourcePoint" />
            <mxPoint x="280" y="410" as="targetPoint" />
            <Array as="points" />
          </mxGeometry>
        </mxCell>
        <mxCell id="-3NiizZmWT5sZ95pFtB3-48" value="" style="endArrow=classic;html=1;rounded=0;entryX=0.557;entryY=1;entryDx=0;entryDy=0;entryPerimeter=0;exitX=0.5;exitY=0;exitDx=0;exitDy=0;" edge="1" parent="1" source="-3NiizZmWT5sZ95pFtB3-44" target="-3NiizZmWT5sZ95pFtB3-16">
          <mxGeometry width="50" height="50" relative="1" as="geometry">
            <mxPoint x="150" y="550" as="sourcePoint" />
            <mxPoint x="200" y="500" as="targetPoint" />
          </mxGeometry>
        </mxCell>
      </root>
    </mxGraphModel>
  </diagram>
</mxfile>
